<?xml version="1.0" ?><svg xmlns="http://www.w3.org/2000/svg" xmlns:xlink="http://www.w3.org/1999/xlink" version="1.1" viewBox="0 0 512 512" style="enable-background:new 0 0 512 512;" xml:space="preserve"><g id="_x34_8_Washing_Machine_x2C__Wash_x2C__Washing_x2C__Washing_Clothes_x2C__Clothes"><g><g><g><path style="fill:#FFFFFF;" d="M371.018,10.963H40.965c-16.565,0-30.002,13.437-30.002,30.002v90.016H401.02V40.965      C401.02,24.4,387.593,10.963,371.018,10.963z"/><path style="fill:#CDDCF9;" d="M501.037,451.034v50.004H366.018c-12.067,0-22.233-8.574-24.514-20.091      c-3.091-15.36,8.637-29.912,24.514-29.912H501.037z"/><path style="fill:#CDDCF9;" d="M501.037,401.02v50.013H366.018c-13.851,0-25.002-11.233-25.002-25.012      c0-13.806,11.196-25.002,25.002-25.002h35.002H501.037z"/><path style="fill:#FFFFFF;" d="M10.963,130.981c0,0,0,235.266,0,320.052c0,16.565,13.437,30.002,30.002,30.002h300.051      l0.488-0.089c-3.092-15.36,8.637-29.913,24.514-29.913c-13.852,0-25.002-11.233-25.002-25.012      c0-13.806,11.196-25.002,25.002-25.002h35.003V130.981H10.963z"/><path style="fill:#FFFFFF;" d="M331.015,50.966c11.047,0,20.001,8.955,20.001,20.001c0,11.051-8.944,20.011-20.001,20.011      h-90.016c-11.047,0-20.001-8.955-20.001-20.011c0-11.05,8.964-20.001,20.001-20.001H331.015z"/><path style="fill:#CDDCF9;" d="M300.874,301.003c2.928,53.918-40.092,100.017-94.877,100.017      c-54.854,0-97.816-46.159-94.887-100.017C123.441,301.003,289.767,301.003,300.874,301.003z"/><path style="fill:#FFFFFF;" d="M300.874,301.003c-11.106,0-177.433,0-189.764,0c2.6-50.153,44.077-90.006,94.887-90.006      C256.797,210.997,298.274,250.85,300.874,301.003z"/></g></g><g><g><g id="XMLID_1299_"><path style="fill:#487FE9;" d="M341.013,490.995H40.967c-22.036,0-39.965-17.928-39.965-39.963v-320.05       c0-5.501,4.46-9.961,9.961-9.961h390.059c5.501,0,9.961,4.46,9.961,9.961v270.041c0,5.501-4.46,9.961-9.961,9.961       s-9.961-4.46-9.961-9.961v-260.08H20.924v310.089c0,11.051,8.991,20.041,20.043,20.041h300.046c5.501,0,9.961,4.46,9.961,9.961       C350.974,486.535,346.513,490.995,341.013,490.995z"/></g><g id="XMLID_1298_"><path style="fill:#487FE9;" d="M401.022,140.942c-5.501,0-9.961-4.46-9.961-9.961V40.967c0-11.052-8.991-20.043-20.043-20.043       H40.967c-11.052,0-20.043,8.991-20.043,20.043v90.014c0,5.501-4.46,9.961-9.961,9.961s-9.961-4.46-9.961-9.961V40.967       c0-22.036,17.929-39.965,39.965-39.965h330.051c22.036,0,39.965,17.929,39.965,39.965v90.014       C410.983,136.482,406.523,140.942,401.022,140.942z"/></g><g><path style="fill:#487FE9;" d="M205.996,410.981c-61.381,0-108.02-51.774-104.833-110.517       c2.89-55.744,48.939-99.429,104.833-99.429c55.889,0,101.933,43.685,104.824,99.453       C314.004,359.102,267.46,410.981,205.996,410.981z M205.996,220.957c-45.288,0-82.597,35.387-84.94,80.562       c-2.604,47.989,35.529,89.54,84.94,89.54c49.303,0,87.539-41.452,84.931-89.515       C288.584,256.344,251.278,220.957,205.996,220.957z"/></g><g><path style="fill:#487FE9;" d="M300.873,310.964H110.98c-5.501,0-9.961-4.46-9.961-9.961s4.46-9.961,9.961-9.961h189.894       c5.501,0,9.961,4.46,9.961,9.961S306.374,310.964,300.873,310.964z"/></g><g><path style="fill:#487FE9;" d="M205.996,410.981c-61.381,0-108.02-51.774-104.833-110.517       c2.89-55.744,48.939-99.429,104.833-99.429c55.889,0,101.933,43.685,104.824,99.453       C314.004,359.102,267.46,410.981,205.996,410.981z M205.996,220.957c-45.288,0-82.597,35.387-84.94,80.562       c-2.604,47.989,35.529,89.54,84.94,89.54c49.303,0,87.539-41.452,84.931-89.515       C288.584,256.344,251.278,220.957,205.996,220.957z"/></g><g id="XMLID_1297_"><path style="fill:#487FE9;" d="M501.037,510.998h-135.02c-19.28,0-34.965-15.684-34.965-34.964       c0-19.28,15.685-34.965,34.965-34.965h135.02c5.501,0,9.961,4.46,9.961,9.961v50.008       C510.998,506.538,506.538,510.998,501.037,510.998z M366.017,460.99c-8.295,0-15.043,6.748-15.043,15.042       s6.749,15.043,15.043,15.043h125.059V460.99H366.017z"/></g><g id="XMLID_1296_"><path style="fill:#487FE9;" d="M501.037,460.99h-135.02c-19.28,0-34.965-15.684-34.965-34.964       c0-19.28,15.685-34.965,34.965-34.965h135.02c5.501,0,9.961,4.46,9.961,9.961v50.008       C510.998,456.53,506.538,460.99,501.037,460.99z M366.017,410.983c-8.295,0-15.043,6.749-15.043,15.043       s6.749,15.042,15.043,15.042h125.059v-30.086H366.017z"/></g><g id="XMLID_1295_"><path style="fill:#487FE9;" d="M60.967,60.927c-5.557,0-9.961-4.523-9.961-9.961c0-5.372,4.319-9.927,9.966-9.95       c5.401-0.022,9.956,4.396,9.956,9.95C70.927,56.387,66.544,60.927,60.967,60.927z"/></g><g id="XMLID_1294_"><path style="fill:#487FE9;" d="M110.98,60.927c-5.569,0-9.961-4.532-9.961-9.961c0-5.557,4.543-9.956,9.956-9.956       c5.623,0,9.966,4.606,9.966,9.956C120.941,56.458,116.473,60.927,110.98,60.927z"/></g><g id="XMLID_1293_"><circle style="fill:#487FE9;" cx="160.983" cy="50.966" r="9.961"/></g><g id="XMLID_1292_"><path style="fill:#487FE9;" d="M60.967,100.939c-5.386,0-9.951-4.373-9.951-9.961c0-5.584,4.532-9.966,9.956-9.966       c5.451,0,9.956,4.426,9.956,9.966C70.927,96.52,66.405,100.939,60.967,100.939z"/></g><g id="XMLID_1291_"><path style="fill:#487FE9;" d="M110.98,100.939c-5.422,0-9.961-4.409-9.961-9.961c0-4.624,3.192-8.78,8.009-9.772       c6.204-1.249,11.913,3.553,11.913,9.772C120.941,96.479,116.435,100.939,110.98,100.939z"/></g><g id="XMLID_1290_"><path style="fill:#487FE9;" d="M160.983,100.939c-5.529,0-9.961-4.536-9.961-9.961c0-5.52,4.498-9.964,9.961-9.966       c5.414-0.002,9.961,4.388,9.961,9.966C170.944,96.508,166.442,100.939,160.983,100.939z"/></g><g id="XMLID_1289_"><path style="fill:#487FE9;" d="M331.012,100.935h-90.014c-16.522,0-29.963-13.441-29.963-29.963s13.441-29.964,29.963-29.964       h90.014c16.522,0,29.963,13.442,29.963,29.964S347.534,100.935,331.012,100.935z M240.997,60.93       c-5.537,0-10.042,4.505-10.042,10.043c0,5.537,4.505,10.042,10.042,10.042h90.014c5.537,0,10.042-4.505,10.042-10.042       c0-5.538-4.505-10.043-10.042-10.043H240.997z"/></g></g></g></g></g><g id="Layer_1"/></svg>